<svg width="35" height="35" viewBox="0 0 35 35" fill="none" xmlns="http://www.w3.org/2000/svg">
<path d="M9.1584 32.0834C11.6713 32.0834 13.7084 30.0463 13.7084 27.5334C13.7084 25.0205 11.6713 22.9834 9.1584 22.9834C6.6455 22.9834 4.6084 25.0205 4.6084 27.5334C4.6084 30.0463 6.6455 32.0834 9.1584 32.0834Z" stroke="black" stroke-width="2.5" stroke-linecap="round" stroke-linejoin="round"/>
<path d="M30.3923 24.5002V6.7085C30.3923 2.91683 28.0152 2.39183 25.609 3.04808L16.509 5.52725C14.8465 5.97933 13.709 7.29183 13.709 9.18767V12.3523V14.4814V27.5189" stroke="black" stroke-width="2.5" stroke-linecap="round" stroke-linejoin="round"/>
<path d="M25.841 29.05C28.3539 29.05 30.391 27.0128 30.391 24.4999C30.391 21.9871 28.3539 19.95 25.841 19.95C23.3281 19.95 21.291 21.9871 21.291 24.4999C21.291 27.0128 23.3281 29.05 25.841 29.05Z" stroke="black" stroke-width="2.5" stroke-linecap="round" stroke-linejoin="round"/>
<path d="M13.709 13.8833L30.3923 9.33325" stroke="black" stroke-width="2.5" stroke-linecap="round" stroke-linejoin="round"/>
</svg>
