<svg width="19" height="19" viewBox="0 0 19 19" fill="none" xmlns="http://www.w3.org/2000/svg">
<g clip-path="url(#clip0_270_723)">
<path d="M3.72514 14.5212C0.760076 11.5562 0.760076 6.69041 3.72514 3.72534" stroke="white" stroke-width="1.52055" stroke-linecap="round" stroke-linejoin="round"/>
<path d="M5.93012 12.3165C4.18149 10.5678 4.18149 7.67878 5.93012 5.85413" stroke="white" stroke-width="1.52055" stroke-linecap="round" stroke-linejoin="round"/>
<path d="M9.12321 10.6439C9.96298 10.6439 10.6438 9.96311 10.6438 9.12333C10.6438 8.28356 9.96298 7.60278 9.12321 7.60278C8.28343 7.60278 7.60266 8.28356 7.60266 9.12333C7.60266 9.96311 8.28343 10.6439 9.12321 10.6439Z" stroke="white" stroke-width="1.52055" stroke-linecap="round" stroke-linejoin="round"/>
<path d="M12.3163 5.93011C14.0649 7.67874 14.0649 10.5678 12.3163 12.3924" stroke="white" stroke-width="1.52055" stroke-linecap="round" stroke-linejoin="round"/>
<path d="M14.5211 3.72534C17.4862 6.69041 17.4862 11.4801 14.5211 14.4452" stroke="white" stroke-width="1.52055" stroke-linecap="round" stroke-linejoin="round"/>
</g>
<defs>
<clipPath id="clip0_270_723">
<rect width="18.2466" height="18.2466" fill="white"/>
</clipPath>
</defs>
</svg>
