<svg width="35" height="35" viewBox="0 0 35 35" fill="none" xmlns="http://www.w3.org/2000/svg">
<path d="M26.2499 10.4416C26.1624 10.427 26.0604 10.427 25.9729 10.4416C23.9604 10.3687 22.3562 8.7208 22.3562 6.67913C22.3562 4.59371 24.0333 2.91663 26.1187 2.91663C28.2041 2.91663 29.8812 4.6083 29.8812 6.67913C29.8666 8.7208 28.2624 10.3687 26.2499 10.4416Z" stroke="black" stroke-width="2.5" stroke-linecap="round" stroke-linejoin="round"/>
<path d="M24.7483 21.0584C26.7463 21.3938 28.9483 21.0438 30.4942 20.0084C32.5504 18.6376 32.5504 16.3917 30.4942 15.0209C28.9338 13.9855 26.7025 13.6355 24.7046 13.9855" stroke="black" stroke-width="2.5" stroke-linecap="round" stroke-linejoin="round"/>
<path d="M8.70694 10.4416C8.79444 10.427 8.89652 10.427 8.98402 10.4416C10.9965 10.3687 12.6007 8.7208 12.6007 6.67913C12.6007 4.59371 10.9236 2.91663 8.83819 2.91663C6.75277 2.91663 5.07568 4.6083 5.07568 6.67913C5.09027 8.7208 6.69444 10.3687 8.70694 10.4416Z" stroke="black" stroke-width="2.5" stroke-linecap="round" stroke-linejoin="round"/>
<path d="M10.2089 21.0583C8.211 21.3937 6.00892 21.0437 4.46309 20.0083C2.40684 18.6374 2.40684 16.3916 4.46309 15.0208C6.0235 13.9854 8.25475 13.6354 10.2527 13.9854" stroke="black" stroke-width="2.5" stroke-linecap="round" stroke-linejoin="round"/>
<path d="M17.5001 21.3354C17.4126 21.3208 17.3105 21.3208 17.223 21.3354C15.2105 21.2625 13.6063 19.6146 13.6063 17.5729C13.6063 15.4875 15.2834 13.8104 17.3688 13.8104C19.4542 13.8104 21.1313 15.5021 21.1313 17.5729C21.1167 19.6146 19.5126 21.2771 17.5001 21.3354Z" stroke="black" stroke-width="2.5" stroke-linecap="round" stroke-linejoin="round"/>
<path d="M13.2558 25.9292C11.1996 27.3 11.1996 29.5458 13.2558 30.9166C15.5891 32.4771 19.41 32.4771 21.7433 30.9166C23.7996 29.5458 23.7996 27.3 21.7433 25.9292C19.4246 24.3833 15.5891 24.3833 13.2558 25.9292Z" stroke="black" stroke-width="2.5" stroke-linecap="round" stroke-linejoin="round"/>
</svg>
