<svg width="32" height="32" viewBox="0 0 32 32" fill="none" xmlns="http://www.w3.org/2000/svg">
<path d="M10.7867 15.5065H4.53341C4.64008 9.27988 5.86675 8.25321 9.69341 5.98655C10.1334 5.71988 10.2801 5.15988 10.0134 4.70655C9.76008 4.26655 9.18675 4.11988 8.74675 4.38655C4.24008 7.05321 2.66675 8.67988 2.66675 16.4265V23.6132C2.66675 25.8932 4.52008 27.7332 6.78675 27.7332H10.7867C13.1334 27.7332 14.9067 25.9599 14.9067 23.6132V19.6132C14.9067 17.2799 13.1334 15.5065 10.7867 15.5065Z" fill="#9747FF"/>
<path d="M25.2127 15.5065H18.9593C19.066 9.27988 20.2927 8.25321 24.1193 5.98655C24.5593 5.71988 24.706 5.15988 24.4393 4.70655C24.1727 4.26655 23.6127 4.11988 23.1593 4.38655C18.6527 7.05321 17.0793 8.67988 17.0793 16.4399V23.6265C17.0793 25.9065 18.9327 27.7465 21.1993 27.7465H25.1993C27.546 27.7465 29.3193 25.9732 29.3193 23.6265V19.6265C29.3327 17.2799 27.5593 15.5065 25.2127 15.5065Z" fill="#9747FF"/>
</svg>
