<svg width="35" height="35" viewBox="0 0 35 35" fill="none" xmlns="http://www.w3.org/2000/svg">
<path d="M17.5 21.875C19.9162 21.875 21.875 19.9162 21.875 17.5C21.875 15.0838 19.9162 13.125 17.5 13.125C15.0838 13.125 13.125 15.0838 13.125 17.5C13.125 19.9162 15.0838 21.875 17.5 21.875Z" stroke="black" stroke-width="2.5" stroke-miterlimit="10" stroke-linecap="round" stroke-linejoin="round"/>
<path d="M2.91663 18.7833V16.2166C2.91663 14.6999 4.15621 13.4458 5.68746 13.4458C8.32704 13.4458 9.40621 11.5791 8.07913 9.28951C7.32079 7.97701 7.77288 6.27076 9.09996 5.51243L11.6229 4.06868C12.775 3.38326 14.2625 3.79159 14.9479 4.94368L15.1083 5.22076C16.4208 7.51034 18.5791 7.51034 19.9062 5.22076L20.0666 4.94368C20.752 3.79159 22.2395 3.38326 23.3916 4.06868L25.9145 5.51243C27.2416 6.27076 27.6937 7.97701 26.9354 9.28951C25.6083 11.5791 26.6875 13.4458 29.327 13.4458C30.8437 13.4458 32.0979 14.6853 32.0979 16.2166V18.7833C32.0979 20.2999 30.8583 21.5541 29.327 21.5541C26.6875 21.5541 25.6083 23.4208 26.9354 25.7103C27.6937 27.0374 27.2416 28.7291 25.9145 29.4874L23.3916 30.9312C22.2395 31.6166 20.752 31.2083 20.0666 30.0562L19.9062 29.7791C18.5937 27.4895 16.4354 27.4895 15.1083 29.7791L14.9479 30.0562C14.2625 31.2083 12.775 31.6166 11.6229 30.9312L9.09996 29.4874C7.77288 28.7291 7.32079 27.0228 8.07913 25.7103C9.40621 23.4208 8.32704 21.5541 5.68746 21.5541C4.15621 21.5541 2.91663 20.2999 2.91663 18.7833Z" stroke="black" stroke-width="2.5" stroke-miterlimit="10" stroke-linecap="round" stroke-linejoin="round"/>
</svg>
