<svg width="35" height="35" viewBox="0 0 35 35" fill="none" xmlns="http://www.w3.org/2000/svg">
<path d="M13.1251 32.0834H21.8751C26.2501 32.0834 27.7084 30.6251 27.7084 26.2501V8.75008C27.7084 4.37508 26.2501 2.91675 21.8751 2.91675H13.1251C8.75008 2.91675 7.29175 4.37508 7.29175 8.75008V26.2501C7.29175 30.6251 8.75008 32.0834 13.1251 32.0834Z" stroke="black" stroke-width="2.5" stroke-miterlimit="10" stroke-linecap="round" stroke-linejoin="round"/>
<path d="M17.5 26.25C19.9162 26.25 21.875 24.2912 21.875 21.875C21.875 19.4588 19.9162 17.5 17.5 17.5C15.0838 17.5 13.125 19.4588 13.125 21.875C13.125 24.2912 15.0838 26.25 17.5 26.25Z" stroke="black" stroke-width="2.5" stroke-miterlimit="10" stroke-linecap="round" stroke-linejoin="round"/>
<path d="M17.5 13.125C18.7081 13.125 19.6875 12.1456 19.6875 10.9375C19.6875 9.72938 18.7081 8.75 17.5 8.75C16.2919 8.75 15.3125 9.72938 15.3125 10.9375C15.3125 12.1456 16.2919 13.125 17.5 13.125Z" stroke="black" stroke-width="2.5" stroke-miterlimit="10" stroke-linecap="round" stroke-linejoin="round"/>
</svg>
